<svg width="1000" height="1000" viewBox="0 0 1000 1000" fill="none" xmlns="http://www.w3.org/2000/svg">
<circle cx="500" cy="500" r="500" fill="#198754"/>
<path d="M128.926 708V271.636H301.085C334.04 271.636 362.165 277.531 385.46 289.321C408.898 300.969 426.724 317.517 438.94 338.966C451.298 360.273 457.477 385.344 457.477 414.179C457.477 443.156 451.227 468.085 438.727 488.966C426.227 509.705 408.116 525.614 384.395 536.693C360.815 547.773 332.264 553.312 298.741 553.312H183.472V479.165H283.827C301.44 479.165 316.071 476.75 327.719 471.92C339.366 467.091 348.031 459.847 353.713 450.188C359.537 440.528 362.449 428.526 362.449 414.179C362.449 399.69 359.537 387.474 353.713 377.531C348.031 367.588 339.295 360.06 327.506 354.946C315.858 349.69 301.156 347.062 283.401 347.062H221.185V708H128.926ZM364.58 509.42L473.031 708H371.185L265.077 509.42H364.58ZM522.676 708V271.636H614.935V464.037H620.688L777.719 271.636H888.301L726.369 467.02L890.219 708H779.849L660.318 528.597L614.935 583.994V708H522.676Z" fill="white"/>
</svg>
